<svg width="44" height="43" viewBox="0 0 44 43" fill="none" xmlns="http://www.w3.org/2000/svg">
<path d="M14.1114 16.6427H15.8644M15.8644 16.6427H29.8885M15.8644 16.6427V28.9138C15.8644 29.3787 16.0491 29.8246 16.3779 30.1533C16.7066 30.4821 17.1525 30.6668 17.6174 30.6668H26.3825C26.8474 30.6668 27.2933 30.4821 27.6221 30.1533C27.9508 29.8246 28.1355 29.3787 28.1355 28.9138V16.6427H15.8644ZM18.4939 16.6427V14.8897C18.4939 14.4247 18.6786 13.9788 19.0074 13.6501C19.3361 13.3213 19.782 13.1366 20.2469 13.1366H23.753C24.2179 13.1366 24.6638 13.3213 24.9925 13.6501C25.3213 13.9788 25.506 14.4247 25.506 14.8897V16.6427M20.2469 21.0252V26.2843M23.753 21.0252V26.2843" stroke="#4E5864" stroke-width="1.75302" stroke-linecap="round" stroke-linejoin="round"/>
</svg>
