<svg width="800" height="800" viewBox="0 0 800 800" fill="none" xmlns="http://www.w3.org/2000/svg">
<path d="M500 600L500 599.667M300 600L300 599.667M300 400L300 399.667M300 200L300 199.667M500 200L500 199.667M500 400L500 399.667M300 566.667C318.409 566.667 333.333 581.591 333.333 600C333.333 618.409 318.409 633.333 300 633.333C281.591 633.333 266.667 618.409 266.667 600C266.667 581.591 281.591 566.667 300 566.667ZM500 566.667C518.41 566.667 533.333 581.591 533.333 600C533.333 618.409 518.41 633.333 500 633.333C481.59 633.333 466.667 618.409 466.667 600C466.667 581.591 481.59 566.667 500 566.667ZM300 366.667C318.409 366.667 333.333 381.59 333.333 400C333.333 418.41 318.409 433.333 300 433.333C281.591 433.333 266.667 418.41 266.667 400C266.667 381.59 281.591 366.667 300 366.667ZM500 366.667C518.41 366.667 533.333 381.59 533.333 400C533.333 418.41 518.41 433.333 500 433.333C481.59 433.333 466.667 418.41 466.667 400C466.667 381.59 481.59 366.667 500 366.667ZM300 166.667C318.409 166.667 333.333 181.59 333.333 200C333.333 218.41 318.409 233.333 300 233.333C281.591 233.333 266.667 218.41 266.667 200C266.667 181.59 281.591 166.667 300 166.667ZM500 166.667C518.41 166.667 533.333 181.59 533.333 200C533.333 218.41 518.41 233.333 500 233.333C481.59 233.333 466.667 218.41 466.667 200C466.667 181.59 481.59 166.667 500 166.667Z" stroke="black" stroke-width="66.6667" stroke-linecap="round" stroke-linejoin="round"/>
</svg>
